<?xml version="1.0" encoding="UTF-8" standalone="no"?>
<svg
   xmlns:dc="http://purl.org/dc/elements/1.1/"
   xmlns:cc="http://creativecommons.org/ns#"
   xmlns:rdf="http://www.w3.org/1999/02/22-rdf-syntax-ns#"
   xmlns:svg="http://www.w3.org/2000/svg"
   xmlns="http://www.w3.org/2000/svg"
   xmlns:sodipodi="http://sodipodi.sourceforge.net/DTD/sodipodi-0.dtd"
   xmlns:inkscape="http://www.inkscape.org/namespaces/inkscape"
   width="16"
   height="16"
   viewBox="0 0 16 16"
   id="svg2"
   version="1.1"
   inkscape:version="0.91 r13725"
   sodipodi:docname="clipkey.svg">
  <metadata
     id="metadata11">
    <rdf:RDF>
      <cc:Work
         rdf:about="">
        <dc:format>image/svg+xml</dc:format>
        <dc:type
           rdf:resource="http://purl.org/dc/dcmitype/StillImage" />
        <dc:title></dc:title>
      </cc:Work>
    </rdf:RDF>
  </metadata>
  <sodipodi:namedview
     pagecolor="#ffffff"
     bordercolor="#666666"
     borderopacity="1"
     objecttolerance="10"
     gridtolerance="10"
     guidetolerance="10"
     inkscape:pageopacity="0"
     inkscape:pageshadow="2"
     inkscape:window-width="1600"
     inkscape:window-height="845"
     id="namedview9"
     showgrid="true"
     inkscape:zoom="33.89"
     inkscape:cx="8.3101733"
     inkscape:cy="8"
     inkscape:window-x="0"
     inkscape:window-y="28"
     inkscape:window-maximized="1"
     inkscape:current-layer="svg2"
     showguides="true"
     inkscape:guide-bbox="true">
    <sodipodi:guide
       position="7.3177929,17.173207"
       orientation="0,1"
       id="guide4166" />
    <inkscape:grid
       type="xygrid"
       id="grid4161" />
  </sodipodi:namedview>
  <defs
     id="defs4">
    <style
       type="text/css"
       id="current-color-scheme">
   .ColorScheme-Text { color:#cfd8dc; } .ColorScheme-Highlight { color:#00bcd4; } .ColorScheme-ButtonBackground { color:#cfd8dc; }
  </style>
  </defs>
  <path
     style="color:#cfd8dc;opacity:1;fill:currentColor"
     class="ColorScheme-Text"
     d="M 9.7890739,1 C 8.8469706,1 7.9676348,1.4336431 7.376965,2.1894531 L 1.6933713,9.4628906 c -0.5206725,0.6662214 -0.75866576,1.5029474 -0.671875,2.3554684 0.086791,0.852447 0.4893733,1.618869 1.1328125,2.158203 l 0.3691406,0.310547 C 3.0721715,14.747088 3.7624917,15 4.4687619,15 c 0.1090495,0 0.2196184,-0.0057 0.328125,-0.01758 0.8181066,-0.08933 1.5549229,-0.502516 2.0722656,-1.158203 0.00174,-0.0021 0.00245,-0.0028 3.8339845,-4.9062502 0.682383,-0.873513 0.552245,-2.1584173 -0.291016,-2.8652344 L 10.218762,5.890625 C 9.8702959,5.5985419 9.4309379,5.4375 8.9824338,5.4375 c -0.5981617,0 -1.1562905,0.2740233 -1.53125,0.7539062 l -3.828125,4.8984378 c -0.2500575,0.320122 -0.2016664,0.791722 0.1074219,1.050781 0.127906,0.10717 0.2888087,0.166016 0.453125,0.166016 0.2188952,0 0.4229048,-0.10124 0.5605468,-0.277344 L 8.5722775,7.1308594 C 8.6723874,7.0027731 8.8206524,6.9296875 8.9804807,6.9296875 c 0.1214632,0 0.2357592,0.042038 0.3300782,0.1210937 l 0.193359,0.1621094 c 0.108869,0.091239 0.176676,0.2224205 0.191406,0.3671875 0.014695,0.1447671 -0.025151,0.2857576 -0.113281,0.3984375 L 5.7597775,12.871094 c -0.3156391,0.403713 -0.7854369,0.634728 -1.2890625,0.634765 -0.3775654,0 -0.7477075,-0.134957 -1.0410156,-0.380859 L 3.0605588,12.816406 C 2.7165805,12.527772 2.5014533,12.117927 2.45509,11.662109 2.4086906,11.206404 2.5361047,10.758526 2.814465,10.402344 L 8.4980588,3.1289062 C 8.8136979,2.7249679 9.2832789,2.4921875 9.7871209,2.4921875 c 0.3776021,0 0.7477801,0.1350327 1.0410161,0.3808594 l 0.369141,0.3105469 c 0.71007,0.5951493 0.820657,1.6767286 0.246093,2.4121093 -0.121174,0.155113 -0.176445,0.35042 -0.15625,0.5488281 0.02023,0.1983707 0.114014,0.3765284 0.263672,0.5019532 0.127943,0.1072071 0.288809,0.1660156 0.453125,0.1660156 0.218896,0 0.422941,-0.099324 0.560547,-0.2753906 C 13.084378,5.8717506 13.323276,5.0350616 13.23634,4.1816406 13.149477,3.3281821 12.747907,2.5617971 12.105481,2.0234375 L 11.73634,1.7128906 C 11.187292,1.2529122 10.4952,1 9.7890739,1 Z"
     id="path7"
     inkscape:connector-curvature="0" />
  <path
     inkscape:connector-curvature="0"
     style="fill:#cfd8dc;fill-opacity:1"
     d="m 13,8.9999996 c -1.108,0 -2,0.9109004 -2,2.0312504 L 11,12 l -1,0 0,4 6,0 0,-4 -1,0 0,-0.96875 C 15,9.91135 14.108,8.9999996 13,8.9999996 Z M 13,10 c 0.554,0 1,0.4424 1,1 l 0,1 -2,0 0,-1 c 0,-0.5576 0.446,-1 1,-1 z"
     id="path4138" />
</svg>
