<?xml version="1.0" encoding="UTF-8" standalone="no"?>
<svg
   xmlns:dc="http://purl.org/dc/elements/1.1/"
   xmlns:cc="http://creativecommons.org/ns#"
   xmlns:rdf="http://www.w3.org/1999/02/22-rdf-syntax-ns#"
   xmlns:svg="http://www.w3.org/2000/svg"
   xmlns="http://www.w3.org/2000/svg"
   xmlns:sodipodi="http://sodipodi.sourceforge.net/DTD/sodipodi-0.dtd"
   xmlns:inkscape="http://www.inkscape.org/namespaces/inkscape"
   width="16"
   height="16"
   viewBox="0 0 16 16"
   id="svg2"
   version="1.1"
   inkscape:version="0.91 r13725"
   sodipodi:docname="spam.svg">
  <metadata
     id="metadata11">
    <rdf:RDF>
      <cc:Work
         rdf:about="">
        <dc:format>image/svg+xml</dc:format>
        <dc:type
           rdf:resource="http://purl.org/dc/dcmitype/StillImage" />
        <dc:title></dc:title>
      </cc:Work>
    </rdf:RDF>
  </metadata>
  <sodipodi:namedview
     pagecolor="#ffffff"
     bordercolor="#666666"
     borderopacity="1"
     objecttolerance="10"
     gridtolerance="10"
     guidetolerance="10"
     inkscape:pageopacity="0"
     inkscape:pageshadow="2"
     inkscape:window-width="1600"
     inkscape:window-height="848"
     id="namedview9"
     showgrid="false"
     inkscape:zoom="10.727273"
     inkscape:cx="-8.0169492"
     inkscape:cy="11"
     inkscape:window-x="0"
     inkscape:window-y="28"
     inkscape:window-maximized="1"
     inkscape:current-layer="svg2" />
  <defs
     id="defs4">
    <style
       type="text/css"
       id="current-color-scheme">
   .ColorScheme-Text { color:#cfd8dc; } .ColorScheme-Highlight { color:#00bcd4; } .ColorScheme-ButtonBackground { color:#cfd8dc; }
  </style>
  </defs>
  <path
     style="color:#cfd8dc;opacity:1;fill:currentColor"
     class="ColorScheme-Text"
     d="m 5.21875,1 -0.3125,0.28125 -3.625,3.625 -0.28125005,0.3125 0,5.5625 0.28125005,0.3125 3.625,3.625 0.3125,0.28125 5.5625,0 0.3125,-0.28125 3.625,-3.625 L 15,10.78125 15,5.21875 14.71875,4.90625 11.09375,1.28125 10.78125,1 5.21875,1 Z M 6,3 l 4,0 3,3 0,4 -3,3 -4.0000001,0 -3,-3 0,-4 3,-3 z M 6.4375,4 4,6.4375 4,9.5625 6.4375,12 9.5625001,12 12,9.5625 12,6.4375 9.5625001,4 6.4375,4 Z"
     id="path7"
     inkscape:connector-curvature="0" />
</svg>
