<?xml version="1.0" encoding="UTF-8" standalone="no"?>
<svg
   xmlns:dc="http://purl.org/dc/elements/1.1/"
   xmlns:cc="http://creativecommons.org/ns#"
   xmlns:rdf="http://www.w3.org/1999/02/22-rdf-syntax-ns#"
   xmlns:svg="http://www.w3.org/2000/svg"
   xmlns="http://www.w3.org/2000/svg"
   xmlns:sodipodi="http://sodipodi.sourceforge.net/DTD/sodipodi-0.dtd"
   xmlns:inkscape="http://www.inkscape.org/namespaces/inkscape"
   width="24"
   height="24"
   viewBox="0 0 24 24"
   id="svg2"
   version="1.1"
   inkscape:version="0.91 r13725"
   sodipodi:docname="tray_unreadmarkedmail.offline.svg">
  <metadata
     id="metadata11">
    <rdf:RDF>
      <cc:Work
         rdf:about="">
        <dc:format>image/svg+xml</dc:format>
        <dc:type
           rdf:resource="http://purl.org/dc/dcmitype/StillImage" />
        <dc:title />
      </cc:Work>
    </rdf:RDF>
  </metadata>
  <sodipodi:namedview
     pagecolor="#ffffff"
     bordercolor="#666666"
     borderopacity="1"
     objecttolerance="10"
     gridtolerance="10"
     guidetolerance="10"
     inkscape:pageopacity="0"
     inkscape:pageshadow="2"
     inkscape:window-width="1600"
     inkscape:window-height="845"
     id="namedview9"
     showgrid="true"
     inkscape:zoom="16.26"
     inkscape:cx="-6.966219"
     inkscape:cy="8.8586724"
     inkscape:window-x="0"
     inkscape:window-y="28"
     inkscape:window-maximized="1"
     inkscape:current-layer="svg2">
    <inkscape:grid
       type="xygrid"
       id="grid4139" />
  </sodipodi:namedview>
  <defs
     id="defs4">
    <style
       type="text/css"
       id="current-color-scheme">
   .ColorScheme-Text { color:#ffffff; } .ColorScheme-Highlight { color:#5294e2; } .ColorScheme-ButtonBackground { color:#ffffff; }
  </style>
    <style
       id="current-color-scheme-3"
       type="text/css">
   .ColorScheme-Text { color:#ffffff; } .ColorScheme-Highlight { color:#5294e2; } .ColorScheme-ButtonBackground { color:#ffffff; }
  </style>
  </defs>
  <g
     id="g4137"
     transform="translate(1,2)">
    <path
       sodipodi:nodetypes="ccccccssscsscscscccccccccc"
       inkscape:connector-curvature="0"
       id="path4186"
       d="M 6,3 6,5 16,5 16,3 Z M 5,5 C 3.8919999,5 3,5.892 3,7 l 0,8 c 0,1.108 0.8919999,2 2,2 l 9,0 0,-4.599609 C 14,11.867057 14.413439,11.325507 14.751953,11.15625 15.090467,10.98699 15.400391,11 15.400391,11 l 3.199218,0 C 18.734386,11 18.870315,11.02734 19,11.07227 L 19,7 C 19,5.892 18.108,5 17,5 l 0,4 -6,3 -6,-3 z m 1,2 0,2 10,0 0,-2 z"
       style="color:#ffffff;opacity:0.3;fill:currentColor" />
    <path
       sodipodi:nodetypes="csccccsc"
       id="path4145"
       d="m 15.4,12 c 0,0 -0.4,0 -0.4,0.4 L 15,18 16.999999,16 19,18 19,12.4 c 0,0 0,-0.4 -0.400001,-0.4 z"
       style="opacity:1;fill:#5294e2;fill-opacity:1"
       inkscape:connector-curvature="0" />
  </g>
</svg>
