<?xml version="1.0" encoding="UTF-8" standalone="no"?>
<svg
   xmlns:dc="http://purl.org/dc/elements/1.1/"
   xmlns:cc="http://creativecommons.org/ns#"
   xmlns:rdf="http://www.w3.org/1999/02/22-rdf-syntax-ns#"
   xmlns:svg="http://www.w3.org/2000/svg"
   xmlns="http://www.w3.org/2000/svg"
   xmlns:sodipodi="http://sodipodi.sourceforge.net/DTD/sodipodi-0.dtd"
   xmlns:inkscape="http://www.inkscape.org/namespaces/inkscape"
   width="22"
   height="22"
   viewBox="0 0 22 22"
   id="svg2"
   version="1.1"
   inkscape:version="0.91 r13725"
   sodipodi:docname="mail_send_queue.svg">
  <metadata
     id="metadata11">
    <rdf:RDF>
      <cc:Work
         rdf:about="">
        <dc:format>image/svg+xml</dc:format>
        <dc:type
           rdf:resource="http://purl.org/dc/dcmitype/StillImage" />
        <dc:title></dc:title>
      </cc:Work>
    </rdf:RDF>
  </metadata>
  <sodipodi:namedview
     pagecolor="#ffffff"
     bordercolor="#666666"
     borderopacity="1"
     objecttolerance="10"
     gridtolerance="10"
     guidetolerance="10"
     inkscape:pageopacity="0"
     inkscape:pageshadow="2"
     inkscape:window-width="1600"
     inkscape:window-height="845"
     id="namedview9"
     showgrid="false"
     inkscape:zoom="17.31"
     inkscape:cx="8"
     inkscape:cy="8"
     inkscape:window-x="0"
     inkscape:window-y="28"
     inkscape:window-maximized="1"
     inkscape:current-layer="svg2" />
  <defs
     id="defs4">
    <style
       type="text/css"
       id="current-color-scheme">
   .ColorScheme-Text { color:#5c616c; } .ColorScheme-Highlight { color:#5294e2; } .ColorScheme-ButtonBackground { color:#d3dae3; }
  </style>
  </defs>
  <path
     style="color:#5c616c;opacity:1;fill:currentColor"
     class="ColorScheme-Text"
     d="m 7.9994938,3.000253 c -1.7914502,0 -3.582369,0.6839313 -4.949219,2.0507812 -2.73370003,2.7336998 -2.73370003,7.1647378 0,9.8984378 2.7337,2.7337 7.1647382,2.7337 9.8984382,0 2.7337,-2.7337 2.7337,-7.164738 0,-9.8984378 C 11.581863,3.6841843 9.7909438,3.000253 7.9994938,3.000253 Z m -0.07227,2 a 5,5 0 0 1 3.6074222,1.464844 5,5 0 0 1 0,7.070312 5,5 0 0 1 -7.070313,0 5,5 0 0 1 0,-7.070312 5,5 0 0 1 3.4628948,-1.464844 z m -0.9316408,1 0,0.132813 0,4.28125 1.7070308,1.707031 0.615235,0.615234 0.0918,0.0918 0.7070322,-0.707031 0.707031,-0.707032 -0.09375,-0.09375 -0.613281,-0.613281 -1.1210952,-1.121094 0,-3.453125 0,-0.132812 -1.9999996,0 z"
     id="path7"
     inkscape:connector-curvature="0" />
  <path
     sodipodi:type="star"
     style="opacity:1;fill:#5c616c;fill-opacity:1;stroke:none;stroke-width:2;stroke-linejoin:round;stroke-miterlimit:4;stroke-dasharray:none;stroke-opacity:1"
     id="path4141"
     sodipodi:sides="3"
     sodipodi:cx="-15.322034"
     sodipodi:cy="-1.1864407"
     sodipodi:r1="3.8183398"
     sodipodi:r2="1.9091699"
     sodipodi:arg1="-1.5707963"
     sodipodi:arg2="-0.52359875"
     inkscape:flatsided="false"
     inkscape:rounded="0"
     inkscape:randomized="0"
     d="m -15.322034,-5.0047805 1.65339,2.8637549 1.653389,2.86375489 -3.306779,-8e-8 -3.306779,-9e-8 1.653389,-2.86375482 z"
     transform="matrix(0,1.2096362,-1.0475757,0,16.757114,34.534087)"
     inkscape:transform-center-x="-0.23992176"
     inkscape:transform-center-y="0.082010039" />
  <rect
     style="opacity:1;fill:#5c616c;fill-opacity:1;stroke:none;stroke-width:2;stroke-linejoin:round;stroke-miterlimit:4;stroke-dasharray:none;stroke-opacity:1"
     id="rect4143"
     width="8"
     height="2"
     x="8"
     y="14.999999" />
</svg>
